<svg baseProfile="tiny" height="400" version="1.2" width="400" xmlns="http://www.w3.org/2000/svg" xmlns:ev="http://www.w3.org/2001/xml-events" xmlns:xlink="http://www.w3.org/1999/xlink"><defs /><g id="root"><rect fill="#ffffff" fill-opacity="0.0" height="400" width="400" x="0" y="0" /><line stroke="black" x1="175.70978373222047" x2="184.1912077865705" y1="224.2902162677795" y2="215.80879221342948" /><line stroke="black" x1="184.1912077865705" x2="180.3628237028708" y1="215.80879221342948" y2="193.49533457604775" /><line stroke="black" x1="184.1912077865705" x2="206.50466542395222" y1="215.80879221342948" y2="219.63717629712914" /><line stroke="black" x1="177.81056764707103" x2="173.98218356337136" y1="178.61969615112656" y2="156.30623851374483" /><line stroke="black" x1="221.38030384887338" x2="243.69376148625514" y1="222.18943235292892" y2="226.0178164366286" /><line stroke="black" x1="153.9249156313193" x2="166.99583649186002" y1="246.07508436868068" y2="233.00416350813995" /><line stroke="#DF6633" stroke-linecap="round" stroke-opacity="0.8" stroke-width="6.535460430270353" x1="150.8905389633186" x2="153.29590707177977" y1="249.1094610366814" y2="246.70409292822023" /><line stroke="#FFFF2F" stroke-linecap="round" stroke-opacity="0.8" stroke-width="6.535460430270353" x1="153.29590707177977" x2="155.70127518024094" y1="246.70409292822023" y2="244.29872481975903" /><line stroke="black" x1="171.4299275075716" x2="167.60154342387193" y1="141.43060008882367" y2="119.11714245144191" /><line stroke="black" x1="258.56939991117633" x2="280.88285754855804" y1="228.57007249242838" y2="232.39845657612807" /><line stroke="black" x1="132.1400475304181" x2="145.21096839095884" y1="267.85995246958186" y2="254.78903160904116" /><line stroke="#DF6633" stroke-linecap="round" stroke-opacity="0.8" stroke-width="6.535460430270353" x1="113.14193879240213" x2="104.76820323781078" y1="266.04426656020223" y2="268.4746280796635" /><line stroke="#FFFF2F" stroke-linecap="round" stroke-opacity="0.8" stroke-width="6.535460430270353" x1="104.76820323781078" x2="96.39446768321942" y1="268.4746280796635" y2="270.9049895991247" /><line stroke="black" x1="165.04928736807216" x2="161.22090328437247" y1="104.24150402652077" y2="81.92804638913901" /><line stroke="black" x1="295.7584959734792" x2="318.071953610861" y1="234.95071263192784" y2="238.7790967156275" /><line stroke="#DF6633" stroke-linecap="round" stroke-opacity="0.8" stroke-width="6.535460430270353" x1="150.30301843073835" x2="152.54062019129307" y1="289.6628119033332" y2="298.83744333620353" /><line stroke="#FFFF2F" stroke-linecap="round" stroke-opacity="0.8" stroke-width="6.535460430270353" x1="152.54062019129307" x2="154.7782219518478" y1="298.83744333620353" y2="308.0120747690739" /><line stroke="#DF6633" stroke-linecap="round" stroke-opacity="0.8" stroke-width="6.535460430270353" x1="134.63078129108186" x2="132.3931795268328" y1="225.4033883543998" y2="216.2287569344016" /><line stroke="#FFFF2F" stroke-linecap="round" stroke-opacity="0.8" stroke-width="6.535460430270353" x1="132.3931795268328" x2="130.15557776258373" y1="216.2287569344016" y2="207.0541255144034" /><line stroke="black" x1="158.6686472285727" x2="154.840263144873" y1="67.05240796421788" y2="44.73895032683606" /><line stroke="black" x1="332.9475920357821" x2="355.2610496731639" y1="241.3313527714273" y2="245.15973685512697" /><line stroke="black" x1="110.35517942951692" x2="123.42610029005763" y1="289.64482057048303" y2="276.57389970994234" /><line stroke="#FFFF2F" stroke-linecap="round" stroke-opacity="0.8" stroke-width="6.535460430270353" x1="248.31762087662418" x2="255.3909522688976" y1="228.0606713119388" y2="226.4561990810358" /><line stroke="#DF6633" stroke-linecap="round" stroke-opacity="0.8" stroke-width="6.535460430270353" x1="255.3909522688976" x2="262.464283661171" y1="226.4561990810358" y2="224.85172685013282" /><line stroke="#DF6633" stroke-linecap="round" stroke-opacity="0.8" stroke-width="6.535460430270353" x1="171.79186096223492" x2="188.5393320345684" y1="249.0219337056074" y2="244.1612106851786" /><line stroke="#FFFF2F" stroke-linecap="round" stroke-opacity="0.8" stroke-width="6.535460430270353" x1="188.5393320345684" x2="205.28680310690186" y1="244.1612106851786" y2="239.30048766474977" /><line stroke="black" x1="370.136688098085" x2="384.61538461538464" y1="247.71199291092674" y2="250.19614450232717" /><line stroke="black" x1="152.28800708907323" x2="149.80385549767283" y1="29.863311901914926" y2="15.384615384615358" /><line stroke="#FFFF2F" stroke-linecap="round" stroke-opacity="0.8" stroke-width="6.535460430270353" x1="226.28227307329783" x2="220.64296711766985" y1="100.89925311849814" y2="100.59518505462063" /><line stroke="#DF6633" stroke-linecap="round" stroke-opacity="0.8" stroke-width="6.535460430270353" x1="220.64296711766985" x2="215.00366116204188" y1="100.59518505462063" y2="100.29111699074312" /><circle cx="142.46689987253433" cy="257.5331001274656" fill="#DF6633" fill-opacity="0.95" r="33.27072195842032" stroke="black" stroke-width="1.0" /><text dominant-baseline="middle" fill="black" font-size="16" text-anchor="middle" x="142" y="257">Fe</text><line stroke="black" x1="376.1339605610346" x2="384.61538461538464" y1="258.67756855667716" y2="250.19614450232717" /><line stroke="black" x1="384.61538461538464" x2="380.78700053168495" y1="250.19614450232717" y2="227.8826868649454" /><line stroke="black" x1="149.80385549767283" x2="172.1173131350546" y1="15.384615384615358" y2="19.212999468315047" /><line stroke="#FFFF2F" stroke-linecap="round" stroke-opacity="0.8" stroke-width="6.535460430270353" x1="264.9113225562235" x2="274.54975847494234" y1="109.38618164560867" y2="112.59899362597379" /><line stroke="#FFFF2F" stroke-linecap="round" stroke-opacity="0.8" stroke-width="6.535460430270353" x1="274.54975847494234" x2="284.1881943936611" y1="112.59899362597379" y2="115.81180560633891" /><line stroke="black" x1="88.57031132861573" x2="101.64123218915645" y1="311.4296886713842" y2="298.3587678108435" /><line stroke="black" x1="149.80385549767283" x2="136.73293463713213" y1="15.384615384615358" y2="28.455536245156054" /><line stroke="#FFFF2F" stroke-linecap="round" stroke-opacity="0.8" stroke-width="6.535460430270353" x1="236.25336431241698" x2="239.46617628554947" y1="255.4499044706477" y2="265.0883403854108" /><line stroke="#FFFF2F" stroke-linecap="round" stroke-opacity="0.8" stroke-width="6.535460430270353" x1="239.46617628554947" x2="242.67898825868195" y1="265.0883403854108" y2="274.7267763001739" /><line stroke="black" x1="186.99295155997572" x2="209.30640919735748" y1="21.76525552411482" y2="25.59363960781451" /><line stroke="black" x1="378.2347444758852" x2="374.4063603921855" y1="213.00704844002422" y2="190.69359080264252" /><circle cx="228.61347670098186" cy="232.53024164736252" fill="#FFFF2F" fill-opacity="0.95" r="26.4653470123798" stroke="black" stroke-width="1.0" /><text dominant-baseline="middle" fill="black" font-size="16" text-anchor="middle" x="228" y="232">S</text><line stroke="#DF6633" stroke-linecap="round" stroke-opacity="0.8" stroke-width="6.535460430270353" x1="134.04326075854513" x2="129.23252453419502" y1="265.95673924145484" y2="270.7674754658049" /><line stroke="#FFFF2F" stroke-linecap="round" stroke-opacity="0.8" stroke-width="6.535460430270353" x1="129.23252453419502" x2="124.42178830984494" y1="270.7674754658049" y2="275.578211690155" /><line stroke="#FFFF2F" stroke-linecap="round" stroke-opacity="0.8" stroke-width="6.535460430270353" x1="248.76190575043574" x2="251.19226727020686" y1="78.41962043208429" y2="70.04588487805952" /><line stroke="#DF6633" stroke-linecap="round" stroke-opacity="0.8" stroke-width="6.535460430270353" x1="251.19226727020686" x2="253.62262878997794" y1="70.04588487805952" y2="61.67214932403476" /><line stroke="black" x1="354.3490924601334" x2="367.4200133206742" y1="280.46243665757834" y2="267.39151579703764" /><line stroke="black" x1="66.78544322771455" x2="79.85636408825526" y1="333.2145567722854" y2="320.1436359117447" /><line stroke="black" x1="128.01898739677165" x2="114.94806653623093" y1="37.16948348551648" y2="50.24040434605723" /><line stroke="#FFFF2F" stroke-linecap="round" stroke-opacity="0.8" stroke-width="6.535460430270353" x1="127.93480426733606" x2="126.60401398358104" y1="154.6594311514314" y2="155.9902214463747" /><line stroke="#FFFF2F" stroke-linecap="round" stroke-opacity="0.8" stroke-width="6.535460430270353" x1="126.60401398358104" x2="125.27322369982602" y1="155.9902214463747" y2="157.32101174131802" /><circle cx="241.99165972353202" cy="101.74629401697476" fill="#FFFF2F" fill-opacity="0.95" r="26.4653470123798" stroke="black" stroke-width="1.0" /><text dominant-baseline="middle" fill="black" font-size="16" text-anchor="middle" x="241" y="101">S</text><line stroke="#FFFF2F" stroke-linecap="round" stroke-opacity="0.8" stroke-width="6.535460430270353" x1="99.27684600211937" x2="91.52043178348313" y1="300.72315399788056" y2="308.4795682165168" /><line stroke="#FFFF2F" stroke-linecap="round" stroke-opacity="0.8" stroke-width="6.535460430270353" x1="91.52043178348313" x2="83.7640175648469" y1="308.4795682165168" y2="316.23598243515306" /><line stroke="black" x1="371.8541043363857" x2="368.0257202526861" y1="175.81795237772133" y2="153.50449474033957" /><line stroke="black" x1="224.18204762227862" x2="246.49550525966038" y1="28.145895663614283" y2="31.974279747313915" /><line stroke="#DF6633" stroke-linecap="round" stroke-opacity="0.8" stroke-width="6.535460430270353" x1="226.5501635345163" x2="227.15829966650008" y1="194.26363111057273" y2="205.54224305091986" /><line stroke="#FFFF2F" stroke-linecap="round" stroke-opacity="0.8" stroke-width="6.535460430270353" x1="227.15829966650008" x2="227.76643579848388" y1="205.54224305091986" y2="216.82085499126697" /><line stroke="black" x1="66.78544322771455" x2="89.0989008650963" y1="333.2145567722854" y2="337.0429408559851" /><line stroke="black" x1="66.78544322771455" x2="62.957059144014885" y1="333.2145567722854" y2="310.90109913490363" /><line stroke="#DF6633" stroke-linecap="round" stroke-opacity="0.8" stroke-width="6.535460430270353" x1="231.10420050965413" x2="234.31314495932338" y1="149.7437637818519" y2="135.59710098619772" /><line stroke="#FFFF2F" stroke-linecap="round" stroke-opacity="0.8" stroke-width="6.535460430270353" x1="234.31314495932338" x2="237.5220894089926" y1="135.59710098619772" y2="121.45043819054354" /><line stroke="black" x1="332.56422435923224" x2="345.63514521977294" y1="302.2473047584795" y2="289.1763838979388" /><line stroke="black" x1="365.47346419688625" x2="361.6450801131866" y1="138.62885631541843" y2="116.31539867803667" /><line stroke="black" x1="261.3711436845815" x2="283.6846013219633" y1="34.52653580311369" y2="38.35491988681338" /><line stroke="black" x1="106.23411929587044" x2="93.16319843532975" y1="58.954351586417715" y2="72.02527244695841" /><line stroke="#FFFF2F" stroke-linecap="round" stroke-opacity="0.8" stroke-width="6.535460430270353" x1="124.86607318405959" x2="122.62847142350486" y1="125.93716080600038" y2="116.76252937313006" /><line stroke="#DF6633" stroke-linecap="round" stroke-opacity="0.8" stroke-width="6.535460430270353" x1="122.62847142350486" x2="120.39086966295014" y1="116.76252937313006" y2="107.58789794025975" /><line stroke="black" x1="60.404803088215104" x2="56.57641900451543" y1="296.0254607099825" y2="273.71200307260074" /><line stroke="black" x1="103.97453929001746" x2="126.2879969273992" y1="339.59519691178485" y2="343.4235809954845" /><line stroke="#DF6633" stroke-linecap="round" stroke-opacity="0.8" stroke-width="6.535460430270353" x1="193.3556003424348" x2="175.00633746267994" y1="166.67856930398221" y2="162.20336576542118" /><line stroke="#FFFF2F" stroke-linecap="round" stroke-opacity="0.8" stroke-width="6.535460430270353" x1="175.00633746267994" x2="156.6570745829251" y1="162.20336576542118" y2="157.72816222686015" /><line stroke="#DF6633" stroke-linecap="round" stroke-opacity="0.8" stroke-width="6.535460430270353" x1="46.82139823033066" x2="41.18209225965115" y1="214.959042601553" y2="214.65497454017788" /><line stroke="#FFFF2F" stroke-linecap="round" stroke-opacity="0.8" stroke-width="6.535460430270353" x1="41.18209225965115" x2="35.54278628897164" y1="214.65497454017788" y2="214.35090647880276" /><circle cx="117.7211662873535" cy="282.2788337126465" fill="#FFFF2F" fill-opacity="0.95" r="26.4653470123798" stroke="black" stroke-width="1.0" /><text dominant-baseline="middle" fill="black" font-size="16" text-anchor="middle" x="117" y="282">S</text><line stroke="#FFFF2F" stroke-linecap="round" stroke-opacity="0.8" stroke-width="6.535460430270353" x1="337.34436740335167" x2="343.6168029156921" y1="180.06139720204436" y2="173.7889616888274" /><line stroke="#DF6633" stroke-linecap="round" stroke-opacity="0.8" stroke-width="6.535460430270353" x1="343.6168029156921" x2="349.8892384280326" y1="173.7889616888274" y2="167.51652617561047" /><line stroke="#DF6633" stroke-linecap="round" stroke-opacity="0.8" stroke-width="6.535460430270353" x1="208.74703010295875" x2="215.8203614867968" y1="327.8107701377855" y2="326.2062979186892" /><line stroke="#FFFF2F" stroke-linecap="round" stroke-opacity="0.8" stroke-width="6.535460430270353" x1="215.8203614867968" x2="222.89369287063488" y1="326.2062979186892" y2="324.6018256995929" /><line stroke="#DF6633" stroke-linecap="round" stroke-opacity="0.8" stroke-width="6.535460430270353" x1="161.42241205331234" x2="148.54200835104314" y1="316.01752212133704" y2="306.0734594413776" /><line stroke="#FFFF2F" stroke-linecap="round" stroke-opacity="0.8" stroke-width="6.535460430270353" x1="148.54200835104314" x2="135.6616046487739" y1="306.0734594413776" y2="296.1293967614182" /><line stroke="#DF6633" stroke-linecap="round" stroke-opacity="0.8" stroke-width="6.535460430270353" x1="83.98247787866293" x2="93.92654055862235" y1="238.5775879466876" y2="251.4579916489568" /><line stroke="#FFFF2F" stroke-linecap="round" stroke-opacity="0.8" stroke-width="6.535460430270353" x1="93.92654055862235" x2="103.87060323858177" y1="251.4579916489568" y2="264.33839535122604" /><line stroke="#DF6633" stroke-linecap="round" stroke-opacity="0.8" stroke-width="6.535460430270353" x1="257.61502388603145" x2="275.96428676578626" y1="182.3508064675515" y2="186.82601000611254" /><line stroke="#FFFF2F" stroke-linecap="round" stroke-opacity="0.8" stroke-width="6.535460430270353" x1="275.96428676578626" x2="294.3135496455411" y1="186.82601000611254" y2="191.3012135446736" /><line stroke="#FFFF2F" stroke-linecap="round" stroke-opacity="0.8" stroke-width="6.535460430270353" x1="326.10455106289976" x2="328.3421528271488" y1="223.09221496330468" y2="232.2668463833029" /><line stroke="#DF6633" stroke-linecap="round" stroke-opacity="0.8" stroke-width="6.535460430270353" x1="328.3421528271488" x2="330.5797545913979" y1="232.2668463833029" y2="241.44147780330107" /><line stroke="#DF6633" stroke-linecap="round" stroke-opacity="0.8" stroke-width="6.535460430270353" x1="175.46493955956186" x2="173.03457803979077" y1="362.75461960365527" y2="371.12835515768006" /><line stroke="#FFFF2F" stroke-linecap="round" stroke-opacity="0.8" stroke-width="6.535460430270353" x1="173.03457803979077" x2="170.6042165200197" y1="371.12835515768006" y2="379.5020907117048" /><line stroke="#DF6633" stroke-linecap="round" stroke-opacity="0.8" stroke-width="6.535460430270353" x1="88.53651486869225" x2="101.08138585296862" y1="194.05772058213861" y2="181.51284958057045" /><line stroke="#FFFF2F" stroke-linecap="round" stroke-opacity="0.8" stroke-width="6.535460430270353" x1="101.08138585296862" x2="113.62625683724498" y1="181.51284958057045" y2="168.96797857900228" /><line stroke="#FFFF2F" stroke-linecap="round" stroke-opacity="0.8" stroke-width="6.535460430270353" x1="347.10002101265957" x2="352.07205236683495" y1="84.69098040420997" y2="91.13118225736342" /><line stroke="#DF6633" stroke-linecap="round" stroke-opacity="0.8" stroke-width="6.535460430270353" x1="352.07205236683495" x2="357.04408372101034" y1="91.13118225736342" y2="97.57138411051687" /><line stroke="#FFFF2F" stroke-linecap="round" stroke-opacity="0.8" stroke-width="6.535460430270353" x1="315.30901959579" x2="308.86881774263657" y1="52.89997898734043" y2="47.92794763316505" /><line stroke="#DF6633" stroke-linecap="round" stroke-opacity="0.8" stroke-width="6.535460430270353" x1="308.86881774263657" x2="302.4286158894831" y1="47.92794763316505" y2="42.95591627898966" /><line stroke="black" x1="359.09282405738685" x2="355.26443997368716" y1="101.43976025311554" y2="79.12630261573372" /><line stroke="black" x1="298.56023974688446" x2="320.8736973842662" y1="40.90717594261315" y2="44.73556002631284" /><circle cx="131.0993493099037" cy="151.4948860822587" fill="#FFFF2F" fill-opacity="0.95" r="26.4653470123798" stroke="black" stroke-width="1.0" /><text dominant-baseline="middle" fill="black" font-size="16" text-anchor="middle" x="131" y="151">S</text><line stroke="black" x1="310.77935625833106" x2="323.85027711887176" y1="324.0321728593807" y2="310.96125199884" /><line stroke="black" x1="54.024162948715656" x2="50.19577886501598" y1="258.8363646476796" y2="236.52290701029784" /><line stroke="black" x1="141.16363535232037" x2="163.4770929897021" y1="345.9758370512843" y2="349.80422113498395" /><line stroke="black" x1="84.44925119496926" x2="71.37833033442855" y1="80.73921968731887" y2="93.81014054785959" /><line stroke="black" x1="352.7121839178874" x2="350.2280323264869" y1="64.25066419081259" y2="49.77196767351302" /><line stroke="black" x1="335.74933580918736" x2="350.228032326487" y1="47.28781608211261" y2="49.77196767351302" /><polygon fill="green" fill-opacity="0.5" points="184.1912077865705,215.80879221342948 149.80385549767283,15.384615384615358 350.228032326487,49.77196767351302 384.61538461538464,250.19614450232717" stroke="green" stroke-opacity="0.9" stroke-width="1" /><circle cx="225.4853121142331" cy="174.51468788576688" fill="#DF6633" fill-opacity="0.95" r="33.27072195842032" stroke="black" stroke-width="1.0" /><text dominant-baseline="middle" fill="black" font-size="16" text-anchor="middle" x="225" y="174">Fe</text><line stroke="#FFFF2F" stroke-linecap="round" stroke-opacity="0.8" stroke-width="6.535460430270353" x1="351.6937782263468" x2="359.45019244498303" y1="48.306221773653135" y2="40.54980755501694" /><line stroke="#FFFF2F" stroke-linecap="round" stroke-opacity="0.8" stroke-width="6.535460430270353" x1="359.45019244498303" x2="367.2066066636193" y1="40.54980755501694" y2="32.793393336380745" /><circle cx="319.8712749185625" cy="197.53448968927503" fill="#FFFF2F" fill-opacity="0.95" r="26.4653470123798" stroke="black" stroke-width="1.0" /><text dominant-baseline="middle" fill="black" font-size="16" text-anchor="middle" x="319" y="197">S</text><line stroke="black" x1="47.64352280921621" x2="43.81513872551653" y1="221.64726858537665" y2="199.33381094799492" /><line stroke="black" x1="178.3527314146233" x2="200.66618905200502" y1="352.3564771907837" y2="356.1848612744834" /><line stroke="#DF6633" stroke-linecap="round" stroke-opacity="0.8" stroke-width="6.535460430270353" x1="44.604168065043545" x2="38.33173255270306" y1="237.9900674191348" y2="244.26250293235174" /><line stroke="#FFFF2F" stroke-linecap="round" stroke-opacity="0.8" stroke-width="6.535460430270353" x1="38.33173255270306" x2="32.059297040362566" y1="244.26250293235174" y2="250.53493844556868" /><line stroke="#DF6633" stroke-linecap="round" stroke-opacity="0.8" stroke-width="6.535460430270353" x1="219.8664237188121" x2="216.65747926914287" y1="199.28561198968183" y2="213.43227478533603" /><line stroke="#FFFF2F" stroke-linecap="round" stroke-opacity="0.8" stroke-width="6.535460430270353" x1="216.65747926914287" x2="213.44853481947362" y1="213.43227478533603" y2="227.57893758099024" /><line stroke="black" x1="288.9944881574299" x2="302.06540901797064" y1="345.8170409602819" y2="332.7461200997412" /><line stroke="black" x1="350.2280323264869" x2="337.15711146594623" y1="49.77196767351302" y2="62.842888534053714" /><line stroke="#DF6633" stroke-linecap="round" stroke-opacity="0.8" stroke-width="6.535460430270353" x1="206.52979991321794" x2="212.9700017663714" y1="350.841794958309" y2="355.81382631248437" /><line stroke="#FFFF2F" stroke-linecap="round" stroke-opacity="0.8" stroke-width="6.535460430270353" x1="212.9700017663714" x2="219.41020361952485" y1="355.81382631248437" y2="360.7858576666597" /><line stroke="#DF6633" stroke-linecap="round" stroke-opacity="0.8" stroke-width="6.535460430270353" x1="49.158205041691" x2="44.18617368751562" y1="193.470200086782" y2="187.02999823362853" /><line stroke="#FFFF2F" stroke-linecap="round" stroke-opacity="0.8" stroke-width="6.535460430270353" x1="44.18617368751562" x2="39.21414233334025" y1="187.02999823362853" y2="180.5897963804751" /><circle cx="333.2494579411127" cy="66.75054205888728" fill="#FFFF2F" fill-opacity="0.95" r="26.4653470123798" stroke="black" stroke-width="1.0" /><text dominant-baseline="middle" fill="black" font-size="16" text-anchor="middle" x="333" y="66">S</text><line stroke="#DF6633" stroke-linecap="round" stroke-opacity="0.8" stroke-width="6.535460430270353" x1="192.48727242594688" x2="197.34799545248927" y1="304.10469745537983" y2="287.3572263942246" /><line stroke="#FFFF2F" stroke-linecap="round" stroke-opacity="0.8" stroke-width="6.535460430270353" x1="197.34799545248927" x2="202.2087184790317" y1="287.3572263942246" y2="270.60975533306936" /><line stroke="black" x1="62.664383094068086" x2="49.59346223352736" y1="102.52408778822004" y2="115.59500864876077" /><line stroke="#DF6633" stroke-linecap="round" stroke-opacity="0.8" stroke-width="6.535460430270353" x1="224.42046069394996" x2="223.81232456196614" y1="154.765744660961" y2="143.4871327206139" /><line stroke="#FFFF2F" stroke-linecap="round" stroke-opacity="0.8" stroke-width="6.535460430270353" x1="223.81232456196614" x2="223.20418842998234" y1="143.4871327206139" y2="132.20852078026678" /><circle cx="183.97610599338373" cy="333.4296585255072" fill="#DF6633" fill-opacity="0.95" r="33.27072195842032" stroke="black" stroke-width="1.0" /><text dominant-baseline="middle" fill="black" font-size="16" text-anchor="middle" x="183" y="333">Fe</text><circle cx="66.57034147449275" cy="216.02389400661625" fill="#DF6633" fill-opacity="0.95" r="33.27072195842032" stroke="black" stroke-width="1.0" /><text dominant-baseline="middle" fill="black" font-size="16" text-anchor="middle" x="66" y="216">Fe</text><line stroke="#DF6633" stroke-linecap="round" stroke-opacity="0.8" stroke-width="6.535460430270353" x1="159.20518188686188" x2="152.1318504945885" y1="339.0485469471828" y2="340.65301917808574" /><line stroke="#FFFF2F" stroke-linecap="round" stroke-opacity="0.8" stroke-width="6.535460430270353" x1="152.1318504945885" x2="145.05851910231507" y1="340.65301917808574" y2="342.2574914089887" /><line stroke="#FFFF2F" stroke-linecap="round" stroke-opacity="0.8" stroke-width="6.535460430270353" x1="323.03581996113013" x2="324.3666102448851" y1="194.3699446201023" y2="193.039154325159" /><line stroke="#FFFF2F" stroke-linecap="round" stroke-opacity="0.8" stroke-width="6.535460430270353" x1="324.3666102448851" x2="325.6974005286402" y1="193.039154325159" y2="191.70836403021568" /><line stroke="black" x1="41.26288266971675" x2="37.43449858601708" y1="184.45817252307376" y2="162.144714885692" /><line stroke="black" x1="215.5418274769262" x2="237.85528511430795" y1="358.7371173302832" y2="362.5655014139829" /><line stroke="#DF6633" stroke-linecap="round" stroke-opacity="0.8" stroke-width="6.535460430270353" x1="86.31928469193002" x2="91.95859064755798" y1="217.088745421844" y2="217.39281348572152" /><line stroke="#FFFF2F" stroke-linecap="round" stroke-opacity="0.8" stroke-width="6.535460430270353" x1="91.95859064755798" x2="97.59789660318594" y1="217.39281348572152" y2="217.69688154959903" /><line stroke="#FFFF2F" stroke-linecap="round" stroke-opacity="0.8" stroke-width="6.535460430270353" x1="214.71725991604924" x2="211.50444794291678" y1="93.57947130088601" y2="83.94103538612292" /><line stroke="#FFFF2F" stroke-linecap="round" stroke-opacity="0.8" stroke-width="6.535460430270353" x1="211.50444794291678" x2="208.2916359697843" y1="83.94103538612292" y2="74.30259947135983" /><line stroke="#FFFF2F" stroke-linecap="round" stroke-opacity="0.8" stroke-width="6.535460430270353" x1="326.5488359370798" x2="324.1434678286186" y1="73.45116406292016" y2="75.85653217138136" /><line stroke="#DF6633" stroke-linecap="round" stroke-opacity="0.8" stroke-width="6.535460430270353" x1="324.1434678286186" x2="321.73809972015744" y1="75.85653217138136" y2="78.26190027984256" /><line stroke="black" x1="252.73092353922908" x2="267.2096200565287" y1="365.11775746978265" y2="367.60190906118305" /><line stroke="black" x1="267.2096200565287" x2="280.2805409170694" y1="367.60190906118305" y2="354.53098820064235" /><line stroke="black" x1="34.8822425302173" x2="32.398090938816885" y1="147.26907646077086" y2="132.79037994347124" /><line stroke="black" x1="40.87951499316691" x2="32.398090938816885" y1="124.30895588912122" y2="132.79037994347124" /><line stroke="black" x1="328.4431642255858" x2="315.37224336504505" y1="71.55683577441414" y2="84.62775663495489" /><line stroke="#FFFF2F" stroke-linecap="round" stroke-opacity="0.8" stroke-width="6.535460430270353" x1="186.0593016722427" x2="176.4208657535239" y1="239.64319412592505" y2="236.43038214555992" /><line stroke="#FFFF2F" stroke-linecap="round" stroke-opacity="0.8" stroke-width="6.535460430270353" x1="176.4208657535239" x2="166.78242983480516" y1="236.43038214555992" y2="233.2175701651948" /><circle cx="208.9789645049342" cy="247.28308175455896" fill="#FFFF2F" fill-opacity="0.95" r="26.4653470123798" stroke="black" stroke-width="1.0" /><text dominant-baseline="middle" fill="black" font-size="16" text-anchor="middle" x="208" y="247">S</text><line stroke="black" x1="32.398090938816885" x2="54.71154857619862" y1="132.79037994347124" y2="136.6187640271709" /><line stroke="black" x1="267.2096200565287" x2="263.381235972829" y1="367.60190906118305" y2="345.28845142380135" /><line stroke="#FFFF2F" stroke-linecap="round" stroke-opacity="0.8" stroke-width="6.535460430270353" x1="245.68382111395317" x2="254.05755666854452" y1="109.72888809813068" y2="107.29852657866947" /><line stroke="#DF6633" stroke-linecap="round" stroke-opacity="0.8" stroke-width="6.535460430270353" x1="254.05755666854452" x2="262.43129222313587" y1="107.29852657866947" y2="104.86816505920825" /><line stroke="#FFFF2F" stroke-linecap="round" stroke-opacity="0.8" stroke-width="6.535460430270353" x1="224.68835117642678" x2="230.32765714710632" y1="248.1301226449502" y2="248.4341907063253" /><line stroke="#DF6633" stroke-linecap="round" stroke-opacity="0.8" stroke-width="6.535460430270353" x1="230.32765714710632" x2="235.96696311778584" y1="248.4341907063253" y2="248.73825876770042" /><circle cx="222.3571475274844" cy="116.4991341241712" fill="#FFFF2F" fill-opacity="0.95" r="26.4653470123798" stroke="black" stroke-width="1.0" /><text dominant-baseline="middle" fill="black" font-size="16" text-anchor="middle" x="222" y="116">S</text><line stroke="#FFFF2F" stroke-linecap="round" stroke-opacity="0.8" stroke-width="6.535460430270353" x1="202.65300334941332" x2="195.57967196557524" y1="120.96870443258621" y2="122.57317665168249" /><line stroke="#DF6633" stroke-linecap="round" stroke-opacity="0.8" stroke-width="6.535460430270353" x1="195.57967196557524" x2="188.5063405817372" y1="122.57317665168249" y2="124.17764887077877" /><line stroke="black" x1="306.65829612468457" x2="293.5873752641439" y1="93.34170387531537" y2="106.41262473585607" /><line stroke="black" x1="260.82897991702924" x2="257.0005958333296" y1="330.41281299888016" y2="308.0993553614984" /><line stroke="black" x1="69.58718700111979" x2="91.90064463850155" y1="139.1710200829707" y2="142.99940416667036" /><line stroke="black" x1="254.4483397775298" x2="250.61995569383012" y1="293.22371693657726" y2="270.9102592991955" /><line stroke="black" x1="106.77628306342271" x2="129.08974070080444" y1="145.55166022247013" y2="149.38004430616982" /><line stroke="black" x1="284.8734280237834" x2="271.8025071632427" y1="115.12657197621655" y2="128.19749283675725" /><line stroke="black" x1="248.06769963803035" x2="244.2393155543307" y1="256.0346208742743" y2="233.7211632368926" /><line stroke="black" x1="143.9653791257256" x2="166.27883676310736" y1="151.9323003619696" y2="155.76068444566926" /><line stroke="black" x1="263.0885599228822" x2="250.01763906234152" y1="136.91144007711773" y2="149.98236093765843" /><line stroke="black" x1="181.1544751880285" x2="203.46793282541026" y1="158.31294050146903" y2="162.14132458516872" /><line stroke="black" x1="241.68705949853089" x2="237.85867541483123" y1="218.84552481197142" y2="196.53206717458966" /><line stroke="black" x1="218.3435712503314" x2="232.82226776763102" y1="164.6935806409685" y2="167.1777322323689" /><line stroke="black" x1="235.30641935903145" x2="232.82226776763102" y1="181.65642874966852" y2="167.1777322323689" /><line stroke="black" x1="241.30369182198103" x2="232.82226776763102" y1="158.6963081780189" y2="167.1777322323689" /><line stroke="black" stroke-width="1" x1="20" x2="35" y1="380" y2="365" /><text dominant-baseline="middle" fill="red" font-size="14" text-anchor="middle" x="35" y="365">X</text><line stroke="black" stroke-width="1" x1="20" x2="15" y1="380" y2="354" /><text dominant-baseline="middle" fill="green" font-size="14" text-anchor="middle" x="15" y="354">Y</text><line stroke="black" stroke-width="1" x1="20" x2="45" y1="380" y2="384" /><text dominant-baseline="middle" fill="blue" font-size="14" text-anchor="middle" x="45" y="384">Z</text></g></svg>
